<?xml version="1.0" standalone="no"?>
<!DOCTYPE svg PUBLIC "-//W3C//DTD SVG 20010904//EN"
 "http://www.w3.org/TR/2001/REC-SVG-20010904/DTD/svg10.dtd">
<svg version="1.0" xmlns="http://www.w3.org/2000/svg"
 width="700.000000pt" height="700.000000pt" viewBox="0 0 700.000000 700.000000"
 preserveAspectRatio="xMidYMid meet">
<metadata>
Created by potrace 1.14, written by Peter Selinger 2001-2017
</metadata>
<g transform="translate(0.000000,700.000000) scale(0.100000,-0.100000)"
fill="#000000" stroke="none">
<path d="M3328 6996 c-1 -2 -34 -6 -73 -10 -38 -3 -83 -8 -100 -11 -228 -41
-357 -76 -521 -141 -739 -296 -1264 -943 -1364 -1684 -6 -41 -13 -91 -16 -110
-13 -94 -5 -384 16 -545 15 -116 21 -146 45 -250 84 -353 202 -595 523 -1074
322 -479 401 -622 488 -876 37 -108 71 -268 80 -373 14 -177 19 -196 67 -261
29 -38 87 -80 125 -90 26 -7 26 -7 -14 -31 -94 -55 -145 -141 -146 -243 -1
-94 38 -172 114 -227 l38 -28 -35 -22 c-50 -31 -94 -97 -113 -170 -2 -8 -3
-41 -3 -73 2 -98 61 -186 158 -233 50 -25 68 -28 169 -29 63 -1 116 -3 118 -6
3 -2 7 -16 9 -29 16 -82 83 -209 149 -280 120 -129 288 -199 470 -195 158 3
287 53 404 155 40 35 110 120 124 150 6 14 20 41 30 60 10 19 24 59 31 87 7
29 15 53 18 54 3 1 56 2 116 4 118 2 161 14 223 62 102 77 135 236 72 348 -26
47 -50 73 -88 97 l-32 20 40 29 c126 92 150 272 51 396 -20 26 -56 57 -79 68
-23 11 -42 23 -42 27 0 5 3 7 8 6 13 -3 63 22 98 49 70 53 98 127 109 286 3
54 8 104 10 110 2 7 7 29 10 50 23 161 115 405 231 612 58 104 37 71 284 445
262 395 350 547 434 752 99 242 151 458 182 758 7 70 6 349 -1 415 -15 140
-44 286 -77 395 -194 638 -670 1144 -1316 1400 -102 40 -287 96 -352 106 -19
3 -51 9 -70 14 -19 5 -57 11 -85 15 -27 3 -66 8 -85 11 -38 6 -426 15 -432 10z
m327 -561 c335 -27 666 -155 930 -359 321 -250 535 -609 595 -1001 20 -128 17
-390 -6 -535 -52 -331 -156 -582 -384 -925 -36 -55 -125 -188 -196 -295 -192
-287 -289 -456 -374 -655 -35 -83 -106 -276 -109 -300 -1 -5 -6 -26 -11 -45
-5 -19 -17 -74 -26 -123 l-16 -87 -145 0 c-133 0 -144 1 -139 18 2 9 8 37 11
62 4 25 9 52 10 60 1 8 6 35 10 60 4 25 9 54 11 65 5 24 2 8 70 395 30 173 59
335 64 360 5 25 11 61 14 80 2 19 20 123 40 230 19 107 38 211 41 230 5 29 42
243 60 340 2 14 16 94 30 179 14 85 28 157 29 160 5 7 18 119 21 176 3 54 -28
175 -62 237 -109 200 -365 300 -563 221 l-61 -25 -52 23 c-69 30 -190 37 -270
16 -166 -44 -315 -205 -351 -381 -14 -64 -14 -121 -2 -196 8 -49 74 -430 82
-470 2 -14 7 -40 10 -59 3 -18 8 -43 10 -55 2 -11 8 -46 14 -76 5 -30 12 -68
15 -85 3 -16 9 -57 15 -90 5 -33 12 -71 15 -85 3 -14 8 -41 11 -60 3 -19 14
-84 25 -145 11 -60 29 -159 39 -220 17 -99 43 -247 55 -315 3 -14 27 -155 55
-315 28 -159 53 -300 55 -312 l5 -23 -143 0 -144 0 -11 62 c-36 208 -96 382
-212 623 -52 105 -111 217 -120 225 -3 3 -19 28 -35 55 -15 28 -118 185 -228
350 -266 399 -354 557 -427 770 -40 113 -63 208 -76 300 -3 22 -7 46 -10 54
-22 67 -22 497 1 563 2 7 6 29 9 48 19 131 114 362 210 510 341 527 955 818
1611 765z m166 -1834 c30 -50 30 -74 3 -222 -40 -226 -73 -413 -78 -444 -3
-16 -12 -70 -21 -120 -9 -49 -29 -166 -45 -260 -17 -93 -32 -181 -35 -195 -3
-14 -8 -38 -10 -55 -3 -16 -12 -66 -20 -110 -7 -44 -16 -96 -19 -115 -3 -19
-17 -98 -31 -175 -14 -77 -28 -158 -31 -180 -3 -22 -8 -47 -10 -55 -3 -8 -8
-35 -11 -60 -5 -42 -19 -76 -20 -48 0 7 -3 27 -6 43 -3 17 -29 161 -57 320
-56 322 -58 333 -65 373 -3 15 -8 43 -11 62 -3 19 -19 112 -35 205 -17 94 -32
181 -35 195 -2 14 -13 77 -24 140 -11 63 -22 126 -25 140 -8 37 -46 264 -61
355 -2 17 -7 44 -11 60 -18 83 -1 140 57 189 47 39 96 36 140 -9 42 -44 87
-65 138 -65 54 0 82 12 128 54 54 50 89 59 137 33 20 -12 47 -37 58 -56z"/>
</g>
</svg>
